<svg xmlns="http://www.w3.org/2000/svg" data-name="Layer 3" viewBox="0 0 32 32" id="audio"><path fill="#ffffff" d="M9 21h3l2-2H10V13h4.84a1 1 0 00.57-.18L21 8.92V12l2-2V7a1 1 0 00-1.57-.82L14.52 11H9a1 1 0 00-1 1v8A1 1 0 009 21zM21 16.24v6.84l-4-2.81-1.44 1.44 5.89 4.11A1 1 0 0023 25V14.24z"></path><path fill="#0832ff" d="M8,26a1,1,0,0,1-.71-1.71l19-19a1,1,0,0,1,1.41,1.41l-19,19A1,1,0,0,1,8,26Z"></path><line x1="13.5" x2="8.5" y1="19.5" y2="14.5" fill="none" stroke="#0832ff" stroke-miterlimit="10"></line><line x1="14.5" x2="9.5" y1="17.5" y2="12.5" fill="none" stroke="#0832ff" stroke-miterlimit="10"></line><line x1="16.5" x2="12.5" y1="16.5" y2="12.5" fill="none" stroke="#0832ff" stroke-miterlimit="10"></line><line x1="17.5" x2="15.5" y1="14.5" y2="12.5" fill="none" stroke="#0832ff" stroke-miterlimit="10"></line><line x1="19.5" x2="16.5" y1="13.5" y2="10.5" fill="none" stroke="#0832ff" stroke-miterlimit="10"></line><line x1="20.5" x2="18.5" y1="11.5" y2="9.5" fill="none" stroke="#0832ff" stroke-miterlimit="10"></line><rect width="2" height="8" x="8" y="12" fill="#0832ff"></rect><rect width="2" height="8" x="9" y="12" fill="#0832ff"></rect></svg>