<svg width="48" height="48" viewBox="0 0 48 48" fill="none" xmlns="http://www.w3.org/2000/svg">
<path d="M0 2C0 0.895432 0.895431 0 2 0H46C47.1046 0 48 0.895431 48 2V46C48 47.1046 47.1046 48 46 48H2C0.895432 48 0 47.1046 0 46V2Z" fill="#9FD402"/>
<path d="M23.8666 20H27.1999V15.2H32.1999V12H27.1999V7.2H23.8666V12H18.8666V15.2H23.8666V20ZM17.2 34.4C15.3666 34.4 13.8833 35.84 13.8833 37.6C13.8833 39.36 15.3666 40.8 17.2 40.8C19.0333 40.8 20.5333 39.36 20.5333 37.6C20.5333 35.84 19.0333 34.4 17.2 34.4ZM33.8666 34.4C32.0333 34.4 30.5499 35.84 30.5499 37.6C30.5499 39.36 32.0333 40.8 33.8666 40.8C35.6999 40.8 37.1999 39.36 37.1999 37.6C37.1999 35.84 35.6999 34.4 33.8666 34.4ZM19.0333 26.4H31.4499C32.6999 26.4 33.7999 25.744 34.3666 24.752L40.7999 13.536L37.8833 12L31.4499 23.2H19.7499L12.65 8.8H7.19995V12H10.5333L16.5333 24.144L14.2833 28.048C13.0666 30.192 14.6666 32.8 17.2 32.8H37.1999V29.6H17.2L19.0333 26.4Z" fill="#F7F7F7"/>
</svg>
